<svg width="502" height="314" viewBox="0 0 502 314" fill="none" xmlns="http://www.w3.org/2000/svg">
<path d="M388.894 140H135.894C129.796 139.993 123.95 137.568 119.638 133.256C115.326 128.944 112.901 123.098 112.894 117V23C112.901 16.9021 115.326 11.056 119.638 6.7442C123.95 2.43237 129.796 0.00693441 135.894 0H388.894C394.991 0.00693176 400.838 2.43237 405.149 6.7442C409.461 11.056 411.887 16.9021 411.894 23V117C411.887 123.098 409.461 128.944 405.15 133.256C400.838 137.568 394.992 139.993 388.894 140Z" fill="white"/>
<path d="M388.894 140H135.894C129.796 139.993 123.95 137.568 119.638 133.256C115.326 128.944 112.901 123.098 112.894 117V23C112.901 16.9021 115.326 11.056 119.638 6.7442C123.95 2.43237 129.796 0.00693441 135.894 0H388.894C394.991 0.00693176 400.838 2.43237 405.149 6.7442C409.461 11.056 411.887 16.9021 411.894 23V117C411.887 123.098 409.461 128.944 405.15 133.256C400.838 137.568 394.992 139.993 388.894 140ZM135.894 2C130.326 2.00624 124.988 4.22074 121.051 8.15765C117.114 12.0946 114.9 17.4324 114.894 23V117C114.9 122.568 117.115 127.905 121.051 131.842C124.988 135.779 130.326 137.994 135.894 138H388.894C394.461 137.994 399.799 135.779 403.736 131.842C407.673 127.905 409.887 122.568 409.894 117V23C409.887 17.4324 407.673 12.0946 403.736 8.15765C399.799 4.22074 394.461 2.00624 388.894 2H135.894Z" fill="#3F3D56"/>
<path d="M484.627 152.793H350.057C349.208 152.783 348.363 152.676 347.538 152.474C345.076 151.882 342.886 150.477 341.321 148.486C339.757 146.495 338.91 144.035 338.917 141.503V95.7626C338.922 92.7706 340.113 89.9028 342.23 87.7881C344.346 85.6735 347.215 84.4848 350.207 84.4828H484.627C486.439 84.478 488.225 84.9151 489.83 85.7562C490.469 86.0876 491.073 86.482 491.634 86.9334C492.973 87.9817 494.055 89.3221 494.798 90.8522C495.54 92.3824 495.923 94.0619 495.917 95.7626V141.503C495.914 144.496 494.723 147.366 492.607 149.482C490.49 151.599 487.621 152.79 484.627 152.793Z" fill="white"/>
<path d="M475.607 151.793C481.717 136.943 488.154 122.239 494.917 107.683V132.363C490.306 139.379 484.97 145.891 478.997 151.793H475.607Z" fill="#E6E6E6"/>
<path d="M491.007 87.7128C478.917 109.403 466.267 130.763 453.057 151.793H450.757C464.187 130.433 477.057 108.716 489.367 86.6428C489.948 86.944 490.498 87.3024 491.007 87.7128Z" fill="#E6E6E6"/>
<path d="M402.287 111.393C394.387 125.362 385.668 138.852 376.177 151.793H362.467C371.447 140.853 380.434 129.913 389.427 118.973C392.007 115.823 394.807 112.523 398.677 111.243L402.287 111.393Z" fill="#E6E6E6"/>
<path d="M384.067 109.153C382.637 110.643 381.267 112.193 379.977 113.803C377.137 117.223 374.337 120.673 371.527 124.113C369.777 126.253 368.027 128.393 366.297 130.533C365.748 130.18 365.226 129.785 364.737 129.353C361.974 126.954 360.26 123.569 359.963 119.923C359.666 116.276 360.809 112.658 363.147 109.844C365.485 107.029 368.833 105.243 372.472 104.867C376.112 104.491 379.753 105.556 382.617 107.833C383.134 108.235 383.618 108.677 384.067 109.153Z" fill="#BF0022"/>
<path d="M461.397 118.873L435.117 109.263L422.067 104.493C417.817 102.943 413.577 101.173 409.187 100.053C405.37 98.9617 401.316 99.0138 397.527 100.203C394.149 101.453 391.058 103.371 388.437 105.843C387.277 106.913 386.154 108.016 385.067 109.153C383.637 110.643 382.267 112.193 380.977 113.803C378.137 117.223 375.337 120.673 372.527 124.113C370.777 126.253 369.027 128.393 367.297 130.533C361.517 137.603 355.771 144.689 350.057 151.793C349.289 151.784 348.524 151.687 347.777 151.503C353.737 144.103 359.724 136.719 365.737 129.353C366.427 128.493 367.137 127.623 367.837 126.763C370.767 123.173 373.701 119.586 376.637 116.003C378.907 113.233 381.157 110.443 383.617 107.833C383.837 107.593 384.057 107.363 384.287 107.123C389.277 101.963 395.507 97.4028 402.967 97.2828C407.357 97.2128 411.597 98.6028 415.677 100.073C420.067 101.663 424.447 103.283 428.837 104.893L455.297 114.573L461.917 116.993C463.087 117.413 462.587 119.313 461.397 118.873Z" fill="#E6E6E6"/>
<path d="M484.627 152.793H350.057C349.208 152.783 348.363 152.676 347.538 152.474C345.076 151.882 342.886 150.477 341.321 148.486C339.757 146.495 338.91 144.035 338.917 141.503V95.7626C338.922 92.7706 340.113 89.9028 342.23 87.7881C344.346 85.6735 347.215 84.4848 350.207 84.4828H484.627C486.439 84.478 488.225 84.9151 489.83 85.7562C490.469 86.0876 491.073 86.482 491.634 86.9334C492.973 87.9817 494.055 89.3221 494.798 90.8522C495.54 92.3824 495.923 94.0619 495.917 95.7626V141.503C495.914 144.496 494.723 147.366 492.607 149.482C490.49 151.599 487.621 152.79 484.627 152.793ZM350.207 86.4828C347.746 86.4842 345.385 87.4621 343.644 89.2018C341.902 90.9414 340.922 93.3009 340.917 95.7626V141.503C340.911 143.587 341.608 145.611 342.896 147.25C344.183 148.888 345.986 150.044 348.012 150.531C348.686 150.696 349.376 150.784 350.07 150.793H484.627C487.09 150.79 489.452 149.81 491.193 148.069C492.935 146.327 493.914 143.966 493.917 141.503V95.7626C493.922 94.3631 493.606 92.9811 492.994 91.7222C492.383 90.4633 491.492 89.3608 490.389 88.4989C489.929 88.1277 489.433 87.8035 488.908 87.5311C487.588 86.8387 486.118 86.4789 484.627 86.4828H350.207Z" fill="#3F3D56"/>
<path d="M217 196.488H23C16.9021 196.481 11.056 194.056 6.74411 189.744C2.43226 185.432 0.00684988 179.586 0 173.488V139.488C0.00693176 133.39 2.43237 127.544 6.7442 123.232C11.056 118.921 16.9021 116.495 23 116.488H217C223.098 116.495 228.944 118.921 233.256 123.232C237.568 127.544 239.993 133.39 240 139.488V173.488C239.993 179.586 237.568 185.432 233.256 189.744C228.944 194.056 223.098 196.481 217 196.488Z" fill="white"/>
<path d="M217 196.488H23C16.9021 196.481 11.056 194.056 6.74411 189.744C2.43226 185.432 0.00684988 179.586 0 173.488V139.488C0.00693176 133.39 2.43237 127.544 6.7442 123.232C11.056 118.921 16.9021 116.495 23 116.488H217C223.098 116.495 228.944 118.921 233.256 123.232C237.568 127.544 239.993 133.39 240 139.488V173.488C239.993 179.586 237.568 185.432 233.256 189.744C228.944 194.056 223.098 196.481 217 196.488ZM23 118.488C17.4324 118.494 12.0946 120.709 8.15765 124.646C4.22074 128.583 2.00624 133.921 2 139.488V173.488C2.00633 179.056 4.22085 184.394 8.15775 188.33C12.0946 192.267 17.4324 194.482 23 194.488H217C222.568 194.482 227.905 192.267 231.842 188.33C235.779 184.394 237.994 179.056 238 173.488V139.488C237.994 133.921 235.779 128.583 231.842 124.646C227.905 120.709 222.568 118.494 217 118.488H23Z" fill="#3F3D56"/>
<path d="M79.963 177.364H48.7747C47.1076 177.362 45.5093 176.699 44.3304 175.52C43.1516 174.342 42.4885 172.743 42.4867 171.076V141.9C42.4885 140.233 43.1516 138.635 44.3304 137.456C45.5093 136.277 47.1076 135.614 48.7747 135.612H79.963C81.6301 135.614 83.2284 136.277 84.4072 137.456C85.5861 138.635 86.2492 140.233 86.251 141.9V171.076C86.2491 172.743 85.5861 174.342 84.4072 175.52C83.2284 176.699 81.6301 177.362 79.963 177.364Z" fill="#BF0022"/>
<path d="M135.594 177.364H104.406C102.739 177.362 101.14 176.699 99.9616 175.52C98.7828 174.342 98.1197 172.743 98.1179 171.076V141.9C98.1197 140.233 98.7828 138.635 99.9616 137.456C101.14 136.277 102.739 135.614 104.406 135.612H135.594C137.261 135.614 138.86 136.277 140.038 137.456C141.217 138.635 141.88 140.233 141.882 141.9V171.076C141.88 172.743 141.217 174.342 140.038 175.52C138.86 176.699 137.261 177.362 135.594 177.364Z" fill="#E6E6E6"/>
<path d="M191.225 177.364H160.037C158.37 177.362 156.772 176.699 155.593 175.52C154.414 174.342 153.751 172.743 153.749 171.076V141.9C153.751 140.233 154.414 138.635 155.593 137.456C156.772 136.277 158.37 135.614 160.037 135.612H191.225C192.892 135.614 194.491 136.277 195.67 137.456C196.848 138.635 197.511 140.233 197.513 141.9V171.076C197.511 172.743 196.848 174.342 195.67 175.52C194.491 176.699 192.892 177.362 191.225 177.364Z" fill="#E6E6E6"/>
<path d="M274.728 55.4882H234.728C233.667 55.4882 232.65 55.0668 231.9 54.3166C231.15 53.5665 230.728 52.5491 230.728 51.4882C230.728 50.4273 231.15 49.4099 231.9 48.6598C232.65 47.9096 233.667 47.4882 234.728 47.4882H274.728C275.789 47.4882 276.807 47.9096 277.557 48.6598C278.307 49.4099 278.728 50.4273 278.728 51.4882C278.728 52.5491 278.307 53.5665 277.557 54.3166C276.807 55.0668 275.789 55.4882 274.728 55.4882Z" fill="#CCCCCC"/>
<path d="M360.728 77.4882H233.728C232.667 77.4882 231.65 77.0668 230.9 76.3166C230.15 75.5665 229.728 74.5491 229.728 73.4882C229.728 72.4273 230.15 71.4099 230.9 70.6598C231.65 69.9096 232.667 69.4882 233.728 69.4882H360.728C361.789 69.4882 362.807 69.9096 363.557 70.6598C364.307 71.4099 364.728 72.4273 364.728 73.4882C364.728 74.5491 364.307 75.5665 363.557 76.3166C362.807 77.0668 361.789 77.4882 360.728 77.4882Z" fill="#CCCCCC"/>
<path d="M187.224 89.3071C202.036 89.3071 214.043 77.2999 214.043 62.4882C214.043 47.6765 202.036 35.6693 187.224 35.6693C172.413 35.6693 160.406 47.6765 160.406 62.4882C160.406 77.2999 172.413 89.3071 187.224 89.3071Z" fill="#BF0022"/>
<path d="M479 313.488H226C219.902 313.481 214.056 311.056 209.744 306.744C205.432 302.432 203.007 296.586 203 290.488V196.488C203.007 190.39 205.432 184.544 209.744 180.232C214.056 175.921 219.902 173.495 226 173.488H479C485.098 173.495 490.944 175.921 495.256 180.232C499.568 184.544 501.993 190.39 502 196.488V290.488C501.993 296.586 499.568 302.432 495.256 306.744C490.944 311.056 485.098 313.481 479 313.488Z" fill="white"/>
<path d="M479 313.488H226C219.902 313.481 214.056 311.056 209.744 306.744C205.432 302.432 203.007 296.586 203 290.488V196.488C203.007 190.39 205.432 184.544 209.744 180.232C214.056 175.921 219.902 173.495 226 173.488H479C485.098 173.495 490.944 175.921 495.256 180.232C499.568 184.544 501.993 190.39 502 196.488V290.488C501.993 296.586 499.568 302.432 495.256 306.744C490.944 311.056 485.098 313.481 479 313.488ZM226 175.488C220.432 175.494 215.095 177.709 211.158 181.646C207.221 185.583 205.006 190.921 205 196.488V290.488C205.006 296.056 207.221 301.394 211.158 305.33C215.095 309.267 220.432 311.482 226 311.488H479C484.568 311.482 489.905 309.267 493.842 305.33C497.779 301.394 499.994 296.056 500 290.488V196.488C499.994 190.921 497.779 185.583 493.842 181.646C489.905 177.709 484.568 175.494 479 175.488H226Z" fill="#3F3D56"/>
<path d="M324.539 210.732H282.042C281.509 210.733 280.98 210.628 280.487 210.425C279.994 210.221 279.546 209.922 279.168 209.545C278.791 209.168 278.491 208.721 278.287 208.228C278.083 207.735 277.977 207.207 277.977 206.674C277.977 206.14 278.083 205.612 278.287 205.119C278.491 204.626 278.791 204.179 279.168 203.802C279.546 203.425 279.994 203.126 280.487 202.922C280.98 202.719 281.509 202.614 282.042 202.615H324.539C325.614 202.617 326.644 203.045 327.404 203.806C328.164 204.567 328.591 205.598 328.591 206.674C328.591 207.749 328.164 208.78 327.404 209.541C326.644 210.302 325.614 210.73 324.539 210.732Z" fill="#BF0022"/>
<path d="M419.802 227.33H282.042C280.966 227.33 279.933 226.903 279.172 226.141C278.411 225.38 277.984 224.348 277.984 223.272C277.984 222.196 278.411 221.163 279.172 220.402C279.933 219.641 280.966 219.214 282.042 219.214H419.802C420.878 219.214 421.911 219.641 422.672 220.402C423.433 221.163 423.86 222.196 423.86 223.272C423.86 224.348 423.433 225.38 422.672 226.141C421.911 226.903 420.878 227.33 419.802 227.33Z" fill="#E6E6E6"/>
<path d="M419.802 246.383H282.042C281.509 246.383 280.981 246.278 280.489 246.074C279.997 245.87 279.549 245.571 279.172 245.194C278.796 244.817 278.497 244.37 278.293 243.878C278.089 243.385 277.984 242.857 277.984 242.325C277.984 241.792 278.089 241.264 278.293 240.772C278.497 240.279 278.796 239.832 279.172 239.455C279.549 239.078 279.997 238.779 280.489 238.575C280.981 238.371 281.509 238.266 282.042 238.266H419.802C420.878 238.266 421.911 238.694 422.672 239.455C423.433 240.216 423.86 241.248 423.86 242.325C423.86 243.401 423.433 244.433 422.672 245.194C421.911 245.955 420.878 246.383 419.802 246.383Z" fill="#E6E6E6"/>
<path d="M419.802 265.436H282.042C281.509 265.436 280.98 265.332 280.487 265.128C279.994 264.925 279.546 264.626 279.168 264.249C278.791 263.872 278.491 263.425 278.287 262.932C278.083 262.439 277.977 261.911 277.977 261.377C277.977 260.844 278.083 260.316 278.287 259.823C278.491 259.33 278.791 258.882 279.168 258.505C279.546 258.128 279.994 257.83 280.487 257.626C280.98 257.423 281.509 257.318 282.042 257.319H419.802C420.877 257.321 421.908 257.749 422.668 258.51C423.427 259.271 423.854 260.302 423.854 261.377C423.854 262.452 423.427 263.484 422.668 264.245C421.908 265.006 420.877 265.434 419.802 265.436Z" fill="#E6E6E6"/>
<path d="M419.802 284.488H282.042C280.966 284.488 279.933 284.061 279.172 283.3C278.411 282.538 277.984 281.506 277.984 280.43C277.984 279.354 278.411 278.321 279.172 277.56C279.933 276.799 280.966 276.372 282.042 276.372H419.802C420.878 276.372 421.911 276.799 422.672 277.56C423.433 278.321 423.86 279.354 423.86 280.43C423.86 281.506 423.433 282.538 422.672 283.3C421.911 284.061 420.878 284.488 419.802 284.488Z" fill="#E6E6E6"/>
</svg>
